<svg width="24" height="24" viewBox="0 0 24 24" fill="none" xmlns="http://www.w3.org/2000/svg">
<path d="M12 14C14.206 14 16 12.206 16 10C16 7.794 14.206 6 12 6C9.794 6 8 7.794 8 10C8 12.206 9.794 14 12 14ZM12 7C14 7 15 8.5 15 10C15 11.5 13.5 13 12 13C10.5 13 9 11.5 9 10C9 8.5 10 7 12 7Z" fill="#A6A6A6"/>
<circle cx="12" cy="10" r="4" fill="#A6A6A6" fill-opacity="0.5"/>
<path fill-rule="evenodd" clip-rule="evenodd" d="M12.0001 21.9998C11.7921 21.9998 11.5893 21.9349 11.4201 21.814C11.1161 21.599 3.97109 16.44 4.00009 9.995C4.00009 5.589 7.58909 2 12.0001 2C16.4111 2 20.0001 5.589 20.0001 10C20.0291 16.44 12.8841 21.599 12.5801 21.814C12.4108 21.9349 12.2081 21.9998 12.0001 21.9998ZM12 13C13.6569 13 15 11.6569 15 10C15 8.34315 13.6569 7 12 7C10.3431 7 9 8.34315 9 10C9 11.6569 10.3431 13 12 13Z" fill="#A6A6A6"/>
</svg>
