<svg width="24" height="24" viewBox="0 0 24 24" fill="none" xmlns="http://www.w3.org/2000/svg">
<path d="M12.5508 8C12.2856 8 12.0312 8.10536 11.8437 8.29289C11.6561 8.48043 11.5508 8.73478 11.5508 9C11.5508 9.26522 11.6561 9.51957 11.8437 9.70711C12.0312 9.89464 12.2856 10 12.5508 10H16.5508C16.816 10 17.0704 9.89464 17.2579 9.70711C17.4454 9.51957 17.5508 9.26522 17.5508 9C17.5508 8.73478 17.4454 8.48043 17.2579 8.29289C17.0704 8.10536 16.816 8 16.5508 8H12.5508Z" fill="#A6A6A6" fill-opacity="0.5"/>
<path d="M12.5508 17C12.2856 17 12.0312 17.1054 11.8437 17.2929C11.6561 17.4804 11.5508 17.7348 11.5508 18C11.5508 18.2652 11.6561 18.5196 11.8437 18.7071C12.0312 18.8946 12.2856 19 12.5508 19H16.5508C16.816 19 17.0704 18.8946 17.2579 18.7071C17.4454 18.5196 17.5508 18.2652 17.5508 18C17.5508 17.7348 17.4454 17.4804 17.2579 17.2929C17.0704 17.1054 16.816 17 16.5508 17H12.5508Z" fill="#A6A6A6" fill-opacity="0.5"/>
<path d="M12.5508 5C12.2856 5 12.0312 5.10536 11.8437 5.29289C11.6561 5.48043 11.5508 5.73478 11.5508 6C11.5508 6.26522 11.6561 6.51957 11.8437 6.70711C12.0312 6.89464 12.2856 7 12.5508 7H20.5508C20.816 7 21.0704 6.89464 21.2579 6.70711C21.4454 6.51957 21.5508 6.26522 21.5508 6C21.5508 5.73478 21.4454 5.48043 21.2579 5.29289C21.0704 5.10536 20.816 5 20.5508 5H12.5508Z" fill="#A6A6A6" fill-opacity="0.8"/>
<path d="M12.5508 14C12.2856 14 12.0312 14.1054 11.8437 14.2929C11.6561 14.4804 11.5508 14.7348 11.5508 15C11.5508 15.2652 11.6561 15.5196 11.8437 15.7071C12.0312 15.8946 12.2856 16 12.5508 16H20.5508C20.816 16 21.0704 15.8946 21.2579 15.7071C21.4454 15.5196 21.5508 15.2652 21.5508 15C21.5508 14.7348 21.4454 14.4804 21.2579 14.2929C21.0704 14.1054 20.816 14 20.5508 14H12.5508Z" fill="#A6A6A6" fill-opacity="0.8"/>
<path d="M3.44727 4.00195C3.18205 4.00195 2.9277 4.10731 2.74016 4.29485C2.55262 4.48238 2.44727 4.73674 2.44727 5.00195V10.002C2.44727 10.2672 2.55262 10.5215 2.74016 10.7091C2.9277 10.8966 3.18205 11.002 3.44727 11.002H8.44727C8.71248 11.002 8.96684 10.8966 9.15437 10.7091C9.34191 10.5215 9.44727 10.2672 9.44727 10.002V5.00195C9.44727 4.73674 9.34191 4.48238 9.15437 4.29485C8.96684 4.10731 8.71248 4.00195 8.44727 4.00195H3.44727V4.00195Z" fill="#A6A6A6"/>
<path d="M3.44727 12.998C3.18205 12.998 2.9277 13.1034 2.74016 13.2909C2.55262 13.4785 2.44727 13.7328 2.44727 13.998V18.998C2.44727 19.2633 2.55262 19.5176 2.74016 19.7052C2.9277 19.8927 3.18205 19.998 3.44727 19.998H8.44727C8.71248 19.998 8.96684 19.8927 9.15437 19.7052C9.34191 19.5176 9.44727 19.2633 9.44727 18.998V13.998C9.44727 13.7328 9.34191 13.4785 9.15437 13.2909C8.96684 13.1034 8.71248 12.998 8.44727 12.998H3.44727V12.998Z" fill="#A6A6A6"/>
</svg>
