<svg width="32" height="32" viewBox="0 0 32 32" fill="none" xmlns="http://www.w3.org/2000/svg">
<circle cx="16" cy="16" r="15.25" stroke="#2B3FFF" stroke-width="1.5"/>
<path d="M24.2282 15.0774C24.6496 15.6285 24.6496 16.3725 24.2282 16.9227C22.9011 18.6551 19.7171 22.2222 15.9998 22.2222C12.2825 22.2222 9.09846 18.6551 7.77135 16.9227C7.56636 16.6588 7.45508 16.3342 7.45508 16C7.45508 15.6659 7.56636 15.3412 7.77135 15.0774C9.09846 13.3449 12.2825 9.7778 15.9998 9.7778C19.7171 9.7778 22.9011 13.3449 24.2282 15.0774V15.0774Z" stroke="#2B3FFF" stroke-width="1.5" stroke-linecap="round" stroke-linejoin="round"/>
<path d="M16.0007 18.6667C17.4734 18.6667 18.6673 17.4728 18.6673 16C18.6673 14.5273 17.4734 13.3333 16.0007 13.3333C14.5279 13.3333 13.334 14.5273 13.334 16C13.334 17.4728 14.5279 18.6667 16.0007 18.6667Z" stroke="#2B3FFF" stroke-width="1.5" stroke-linecap="round" stroke-linejoin="round"/>
</svg>
