<svg width="16" height="28" viewBox="0 0 16 28" fill="none" xmlns="http://www.w3.org/2000/svg">
<path d="M13.291 11.7074L8.99982 7.41419C8.89313 7.32283 8.82777 7.27672 8.70592 7.20685C8.58504 7.13754 8.51455 7.09946 8.38125 7.05889C8.23642 7.01481 8.14944 7.00027 7.99805 7.00027C7.84666 7.00027 7.75968 7.01481 7.61485 7.05889C7.48155 7.09946 7.4108 7.1371 7.29018 7.20685C7.16965 7.27653 7.11343 7.33322 7.00018 7.41419L2.70896 11.7074C2.52122 11.8952 2.26659 12.0006 2.00108 12.0006C1.73558 12.0006 1.48095 11.8952 1.29321 11.7074C1.10547 11.5197 1 11.2651 1 10.9995C1 10.734 1.10547 10.4794 1.29321 10.2917L7.29213 4.29276C7.385 4.19965 7.49533 4.12578 7.6168 4.07537C7.73827 4.02497 7.86849 3.99902 8 3.99902C8.13151 3.99902 8.26173 4.02497 8.3832 4.07537C8.50467 4.12578 8.615 4.19965 8.70787 4.29276L14.7068 10.2917C14.7997 10.3846 14.8735 10.495 14.9238 10.6164C14.9741 10.7379 15 10.8681 15 10.9995C15 11.131 14.9741 11.2612 14.9238 11.3826C14.8735 11.5041 14.7997 11.6145 14.7068 11.7074C14.6138 11.8004 14.5035 11.8741 14.382 11.9244C14.2606 11.9747 14.1304 12.0006 13.9989 12.0006C13.8675 12.0006 13.7373 11.9747 13.6158 11.9244C13.4944 11.8741 13.384 11.8004 13.291 11.7074Z" fill="#C4C4C4"/>
<path d="M13.291 16.2926L8.99982 20.5858C8.89313 20.6772 8.82777 20.7233 8.70592 20.7932C8.58504 20.8625 8.51455 20.9005 8.38125 20.9411C8.23642 20.9852 8.14944 20.9997 7.99805 20.9997C7.84666 20.9997 7.75968 20.9852 7.61485 20.9411C7.48155 20.9005 7.4108 20.8629 7.29018 20.7932C7.16965 20.7235 7.11343 20.6668 7.00018 20.5858L2.70896 16.2926C2.52122 16.1048 2.26659 15.9994 2.00108 15.9994C1.73558 15.9994 1.48095 16.1048 1.29321 16.2926C1.10547 16.4803 1 16.7349 1 17.0005C1 17.266 1.10547 17.5206 1.29321 17.7083L7.29213 23.7072C7.385 23.8004 7.49533 23.8742 7.6168 23.9246C7.73827 23.975 7.86849 24.001 8 24.001C8.13151 24.001 8.26173 23.975 8.3832 23.9246C8.50467 23.8742 8.615 23.8004 8.70787 23.7072L14.7068 17.7083C14.7997 17.6154 14.8735 17.505 14.9238 17.3836C14.9741 17.2621 15 17.1319 15 17.0005C15 16.869 14.9741 16.7388 14.9238 16.6174C14.8735 16.4959 14.7997 16.3855 14.7068 16.2926C14.6138 16.1996 14.5035 16.1259 14.382 16.0756C14.2606 16.0253 14.1304 15.9994 13.9989 15.9994C13.8675 15.9994 13.7373 16.0253 13.6158 16.0756C13.4944 16.1259 13.384 16.1996 13.291 16.2926Z" fill="#C4C4C4"/>
</svg>
